<svg xmlns="http://www.w3.org/2000/svg" viewBox="0 0 1024 1024">
  <defs>
    <linearGradient id="bg" x1="180" y1="80" x2="860" y2="940" gradientUnits="userSpaceOnUse">
      <stop stop-color="#A8DDB5"/>
      <stop offset=".55" stop-color="#5F8F6B"/>
      <stop offset="1" stop-color="#355F42"/>
    </linearGradient>
    <linearGradient id="leaf" x1="350" y1="640" x2="700" y2="420" gradientUnits="userSpaceOnUse">
      <stop stop-color="#E6F7EA"/>
      <stop offset="1" stop-color="#FFFFFF"/>
    </linearGradient>
    <filter id="s" x="-20%" y="-20%" width="140%" height="140%">
      <feDropShadow dx="0" dy="24" stdDeviation="26" flood-color="#17351F" flood-opacity=".22"/>
    </filter>
  </defs>

  <rect width="1024" height="1024" rx="230" fill="url(#bg)"/>

  <g filter="url(#s)">
    <rect x="172" y="236" width="680" height="590" rx="104" fill="white" opacity=".96"/>
    <path d="M276 236h472c57 0 104 47 104 104v74H172v-74c0-57 47-104 104-104Z" fill="#2F6F46"/>
    <rect x="286" y="146" width="76" height="174" rx="38" fill="white"/>
    <rect x="662" y="146" width="76" height="174" rx="38" fill="white"/>

    <circle cx="342" cy="520" r="40" fill="#5F8F6B" opacity=".95"/>
    <circle cx="512" cy="520" r="40" fill="#5F8F6B" opacity=".95"/>
    <circle cx="682" cy="520" r="40" fill="#5F8F6B" opacity=".95"/>

    <path d="M506 750c120-22 197-112 216-244-122 23-199 111-216 244Z" fill="url(#leaf)"/>
    <path d="M506 750c-84-75-98-172-43-278 78 72 105 172 43 278Z" fill="#A8DDB5"/>
    <path d="M505 752c47-88 97-152 188-220" stroke="#2F6F46" stroke-width="24" stroke-linecap="round" opacity=".9"/>
    <path d="M506 752c-18-90-21-154-24-244" stroke="#2F6F46" stroke-width="20" stroke-linecap="round" opacity=".35"/>
  </g>
</svg>
